<svg xmlns="http://www.w3.org/2000/svg" viewBox="0 0 512 512">
  <rect width="512" height="512" rx="132" fill="#ff4f9a"/>
  <path d="M99 257c34-74 88-99 157-99s123 25 157 99c-32 66-85 97-157 97S131 323 99 257z" fill="#fff5f9"/>
  <path d="M108 259c43 29 92 44 148 44s105-15 148-44c-35 58-86 86-148 86s-113-28-148-86z" fill="#d61c69"/>
  <path d="M108 259c43-29 92-44 148-44s105 15 148 44c-35-58-86-86-148-86s-113 28-148 86z" fill="#ff9cc5"/>
  <path d="M256 215v88" stroke="#d61c69" stroke-width="9" stroke-linecap="round"/>
</svg>
